<svg width="1000" height="1000" viewBox="0 0 1000 1000" xmlns="http://www.w3.org/2000/svg"><defs/><path d="M 0 0 L 1000 0 L 1000 1000 L 0 1000 Z"/><path fill="#c9d454" transform="matrix(0.3852023776394751 0 0 0.3852023776394751 12.232393745485377 25.92763733554565)" d="M 439.05331891625 1159.56897177125 C 435.35331891625 1164.56897177125 428.95331891625 1168.66897177125 423.35331891625 1171.36897177125 C 415.55331891625 1175.16897177125 409.75331891625 1179.26897177125 404.65331891625 1186.56897177125 C 403.85331891625 1179.56897177125 406.85331891625 1171.86897177125 409.45331891625 1165.56897177125 C 412.25331891625 1159.06897177125 416.45331891625 1152.26897177125 422.65331891625 1148.46897177125 C 426.85331891625 1145.86897177125 435.25331891625 1145.06897177125 438.95331891625 1148.96897177125 C 442.35331891625 1152.56897177125 441.55331891625 1156.26897177125 439.05331891625 1159.56897177125 Z"/><path fill="#c9d454" transform="matrix(0.3852023776394751 0 0 0.3852023776394751 12.232393745485377 25.92763733554565)" d="M 550.25331891625 1110.86897177125 C 544.45331891625 1113.26897177125 536.95331891625 1113.66897177125 530.75331891625 1113.16897177125 C 522.15331891625 1112.46897177125 515.05331891625 1113.16897177125 506.95331891625 1116.86897177125 C 509.75331891625 1110.46897177125 516.15331891625 1105.26897177125 521.65331891625 1101.16897177125 C 527.35331891625 1096.96897177125 534.35331891625 1093.16897177125 541.55331891625 1093.06897177125 C 546.45331891625 1092.96897177125 554.15331891625 1096.46897177125 555.45331891625 1101.66897177125 C 556.65331891625 1106.46897177125 554.15331891625 1109.26897177125 550.25331891625 1110.86897177125 Z"/><path fill="#c9d454" transform="matrix(0.3852023776394751 0 0 0.3852023776394751 12.232393745485377 25.92763733554565)" d="M 805.65331891625 1303.26897177125 C 803.05331891625 1300.16897177125 800.35331891625 1297.16897177125 797.65331891625 1294.16897177125 C 793.25331891625 1289.26897177125 792.05331891625 1283.56897177125 793.25331891625 1277.16897177125 C 795.15331891625 1267.06897177125 798.95331891625 1256.56897177125 798.75331891625 1246.26897177125 C 798.55331891625 1236.56897177125 793.55331891625 1228.76897177125 786.05331891625 1222.86897177125 C 776.45331891625 1215.26897177125 779.95331891625 1203.96897177125 777.95331891625 1193.16897177125 C 776.55331891625 1185.76897177125 769.55331891625 1179.76897177125 763.65331891625 1175.86897177125 C 755.85331891625 1170.76897177125 740.35331891625 1172.66897177125 736.25331891625 1162.96897177125 C 733.15331891625 1155.66897177125 733.25331891625 1147.46897177125 725.55331891625 1142.96897177125 C 717.35331891625 1138.16897177125 708.35331891625 1135.76897177125 699.05331891625 1134.66897177125 C 690.75331891625 1133.76897177125 684.95331891625 1134.86897177125 677.75331891625 1128.76897177125 C 675.15331891625 1126.66897177125 673.55331891625 1123.16897177125 670.55331891625 1121.46897177125 C 663.45331891625 1117.56897177125 655.15331891625 1117.86897177125 647.25331891625 1118.36897177125 C 632.15331891625 1119.26897177125 620.05331891625 1121.26897177125 604.95331891625 1117.86897177125 C 593.75331891625 1115.36897177125 582.35331891625 1114.16897177125 571.25331891625 1117.86897177125 C 567.45331891625 1119.16897177125 563.85331891625 1121.66897177125 560.45331891625 1123.76897177125 C 551.85331891625 1128.96897177125 542.75331891625 1127.06897177125 533.25331891625 1127.46897177125 C 513.05331891625 1128.26897177125 494.95331891625 1136.86897177125 480.65331891625 1150.96897177125 C 477.15331891625 1154.46897177125 474.45331891625 1158.26897177125 471.55331891625 1162.16897177125 C 469.15331891625 1165.36897177125 465.15331891625 1166.76897177125 461.55331891625 1168.66897177125 C 454.05331891625 1172.86897177125 446.75331891625 1177.36897177125 439.65331891625 1182.26897177125 C 425.25331891625 1192.16897177125 411.85331891625 1203.56897177125 400.05331891625 1216.46897177125 C 376.75331891625 1241.86897177125 359.85331891625 1273.66897177125 357.75331891625 1308.56897177125 C 356.15331891625 1334.96897177125 373.25331891625 1360.76897177125 400.15331891625 1365.56897177125 C 403.95331891625 1366.26897177125 407.45331891625 1366.06897177125 410.65331891625 1365.36897177125 C 453.25331891625 1359.46897177125 496.15331891625 1365.06897177125 538.85331891625 1367.56897177125 C 581.35331891625 1370.06897177125 623.75331891625 1365.86897177125 666.25331891625 1364.96897177125 C 691.45331891625 1364.46897177125 716.45331891625 1368.16897177125 741.65331891625 1367.06897177125 C 759.15331891625 1366.26897177125 780.35331891625 1362.86897177125 790.75331891625 1347.46897177125 C 812.45331891625 1341.96897177125 821.45331891625 1322.66897177125 805.65331891625 1303.26897177125 Z M 439.25331891625 1211.06897177125 C 445.25331891625 1206.46897177125 460.55331891625 1192.86897177125 467.65331891625 1200.76897177125 C 467.75331891625 1200.96897177125 467.95331891625 1200.96897177125 468.15331891625 1201.06897177125 C 464.15331891625 1202.26897177125 460.25331891625 1203.26897177125 457.35331891625 1205.06897177125 C 447.35331891625 1211.26897177125 450.75331891625 1223.66897177125 449.25331891625 1233.26897177125 C 448.45331891625 1238.06897177125 446.35331891625 1241.76897177125 443.55331891625 1244.76897177125 C 443.05331891625 1245.26897177125 434.05331891625 1234.26897177125 433.35331891625 1233.16897177125 C 427.05331891625 1223.76897177125 431.15331891625 1217.26897177125 439.25331891625 1211.06897177125 Z M 396.35331891625 1264.36897177125 C 397.25331891625 1254.96897177125 395.05331891625 1245.46897177125 405.45331891625 1239.56897177125 C 409.65331891625 1237.16897177125 417.45331891625 1233.16897177125 422.15331891625 1232.76897177125 C 424.35331891625 1232.56897177125 425.95331891625 1233.46897177125 427.25331891625 1234.86897177125 C 428.55331891625 1236.26897177125 433.65331891625 1242.46897177125 435.35331891625 1244.06897177125 C 437.15331891625 1245.86897177125 437.85331891625 1246.46897177125 437.25331891625 1248.46897177125 C 436.45331891625 1250.86897177125 431.15331891625 1253.06897177125 429.25331891625 1254.86897177125 C 423.05331891625 1260.76897177125 421.05331891625 1269.86897177125 422.75331891625 1278.26897177125 C 423.95331891625 1284.16897177125 425.75331891625 1289.96897177125 426.35331891625 1296.06897177125 C 426.55331891625 1298.06897177125 426.25331891625 1300.06897177125 425.85331891625 1302.06897177125 C 425.75331891625 1301.96897177125 425.65331891625 1301.96897177125 425.55331891625 1301.86897177125 C 416.55331891625 1298.76897177125 408.65331891625 1295.36897177125 401.35331891625 1289.16897177125 C 392.95331891625 1281.96897177125 395.45331891625 1273.56897177125 396.35331891625 1264.36897177125 Z M 370.25331891625 1279.96897177125 C 370.25331891625 1279.96897177125 364.75331891625 1314.96897177125 378.25331891625 1345.46897177125 C 378.25331891625 1345.46897177125 356.85331891625 1322.66897177125 370.25331891625 1279.96897177125 Z M 420.25331891625 1352.96897177125 C 420.15331891625 1352.86897177125 419.95331891625 1352.66897177125 419.75331891625 1352.56897177125 C 410.45331891625 1347.16897177125 400.45331891625 1342.36897177125 394.45331891625 1332.96897177125 C 387.55331891625 1321.96897177125 397.75331891625 1308.46897177125 401.35331891625 1297.06897177125 C 408.05331891625 1301.86897177125 416.65331891625 1304.76897177125 423.75331891625 1307.26897177125 C 423.75331891625 1307.26897177125 423.85331891625 1307.26897177125 423.85331891625 1307.26897177125 C 422.75331891625 1310.06897177125 421.45331891625 1312.66897177125 420.45331891625 1315.26897177125 C 416.75331891625 1324.46897177125 417.45331891625 1331.16897177125 422.55331891625 1339.66897177125 C 422.55331891625 1339.66897177125 422.65331891625 1339.76897177125 422.65331891625 1339.76897177125 C 423.45331891625 1341.26897177125 424.45331891625 1342.66897177125 425.65331891625 1343.96897177125 C 425.95331891625 1344.26897177125 426.25331891625 1344.36897177125 426.55331891625 1344.56897177125 C 425.05331891625 1347.46897177125 422.95331891625 1350.36897177125 420.25331891625 1352.96897177125 Z M 481.95331891625 1255.76897177125 C 483.75331891625 1254.66897177125 486.05331891625 1255.16897177125 487.15331891625 1256.96897177125 C 487.15331891625 1257.06897177125 491.45331891625 1263.86897177125 494.85331891625 1269.76897177125 C 495.85331891625 1271.56897177125 495.25331891625 1273.96897177125 493.45331891625 1274.96897177125 C 492.85331891625 1275.26897177125 492.25331891625 1275.46897177125 491.55331891625 1275.46897177125 C 490.25331891625 1275.46897177125 488.95331891625 1274.76897177125 488.25331891625 1273.56897177125 C 484.95331891625 1267.76897177125 480.75331891625 1261.06897177125 480.75331891625 1260.96897177125 C 479.55331891625 1259.16897177125 480.15331891625 1256.86897177125 481.95331891625 1255.76897177125 Z M 503.15331891625 1319.36897177125 C 498.45331891625 1324.06897177125 493.05331891625 1329.96897177125 493.05331891625 1329.96897177125 C 491.65331891625 1331.46897177125 489.25331891625 1331.56897177125 487.65331891625 1330.16897177125 C 486.05331891625 1328.76897177125 485.95331891625 1326.36897177125 487.45331891625 1324.76897177125 C 487.55331891625 1324.66897177125 492.95331891625 1318.76897177125 497.75331891625 1313.96897177125 C 499.25331891625 1312.46897177125 501.65331891625 1312.46897177125 503.15331891625 1313.96897177125 C 503.65331891625 1314.46897177125 503.95331891625 1315.06897177125 504.15331891625 1315.66897177125 C 504.45331891625 1316.96897177125 504.15331891625 1318.36897177125 503.15331891625 1319.36897177125 Z M 521.55331891625 1219.76897177125 C 521.55331891625 1219.86897177125 516.95331891625 1226.46897177125 512.95331891625 1231.96897177125 C 511.65331891625 1233.66897177125 509.35331891625 1234.06897177125 507.65331891625 1232.76897177125 C 507.05331891625 1232.36897177125 506.65331891625 1231.86897177125 506.45331891625 1231.26897177125 C 505.95331891625 1230.06897177125 506.05331891625 1228.56897177125 506.85331891625 1227.46897177125 C 510.85331891625 1222.06897177125 515.25331891625 1215.56897177125 515.35331891625 1215.46897177125 C 516.55331891625 1213.76897177125 518.95331891625 1213.26897177125 520.65331891625 1214.46897177125 C 522.35331891625 1215.56897177125 522.75331891625 1217.96897177125 521.55331891625 1219.76897177125 Z M 524.55331891625 1263.26897177125 C 524.95331891625 1261.16897177125 526.85331891625 1259.76897177125 528.95331891625 1260.16897177125 C 529.05331891625 1260.16897177125 536.95331891625 1261.56897177125 543.65331891625 1263.06897177125 C 545.75331891625 1263.46897177125 547.05331891625 1265.56897177125 546.55331891625 1267.56897177125 C 546.45331891625 1268.26897177125 546.05331891625 1268.86897177125 545.65331891625 1269.26897177125 C 544.75331891625 1270.26897177125 543.35331891625 1270.76897177125 542.05331891625 1270.46897177125 C 535.55331891625 1269.06897177125 527.75331891625 1267.66897177125 527.65331891625 1267.66897177125 C 525.55331891625 1267.26897177125 524.15331891625 1265.26897177125 524.55331891625 1263.26897177125 Z M 555.05331891625 1329.46897177125 C 554.55331891625 1329.96897177125 554.05331891625 1330.36897177125 553.45331891625 1330.56897177125 C 552.15331891625 1330.96897177125 550.75331891625 1330.76897177125 549.75331891625 1329.76897177125 C 544.85331891625 1325.26897177125 538.75331891625 1320.16897177125 538.65331891625 1320.16897177125 C 537.05331891625 1318.76897177125 536.85331891625 1316.36897177125 538.15331891625 1314.76897177125 C 539.45331891625 1313.16897177125 541.95331891625 1312.96897177125 543.55331891625 1314.26897177125 C 543.65331891625 1314.36897177125 549.75331891625 1319.46897177125 554.85331891625 1324.06897177125 C 556.35331891625 1325.46897177125 556.45331891625 1327.86897177125 555.05331891625 1329.46897177125 Z M 555.15331891625 1174.66897177125 C 556.95331891625 1173.56897177125 559.25331891625 1174.06897177125 560.35331891625 1175.86897177125 C 560.35331891625 1175.96897177125 564.65331891625 1182.76897177125 568.05331891625 1188.66897177125 C 569.05331891625 1190.46897177125 568.45331891625 1192.86897177125 566.65331891625 1193.86897177125 C 566.05331891625 1194.16897177125 565.45331891625 1194.36897177125 564.75331891625 1194.36897177125 C 563.45331891625 1194.36897177125 562.15331891625 1193.66897177125 561.45331891625 1192.46897177125 C 558.15331891625 1186.66897177125 553.95331891625 1179.96897177125 553.95331891625 1179.86897177125 C 552.85331891625 1178.06897177125 553.35331891625 1175.76897177125 555.15331891625 1174.66897177125 Z M 564.15331891625 1241.76897177125 C 560.85331891625 1235.96897177125 556.65331891625 1229.26897177125 556.65331891625 1229.16897177125 C 555.55331891625 1227.36897177125 556.05331891625 1225.06897177125 557.85331891625 1223.96897177125 C 559.65331891625 1222.86897177125 561.95331891625 1223.36897177125 563.05331891625 1225.16897177125 C 563.05331891625 1225.26897177125 567.35331891625 1232.06897177125 570.75331891625 1237.96897177125 C 571.75331891625 1239.76897177125 571.15331891625 1242.16897177125 569.35331891625 1243.16897177125 C 568.75331891625 1243.46897177125 568.15331891625 1243.66897177125 567.45331891625 1243.66897177125 C 566.15331891625 1243.66897177125 564.85331891625 1242.96897177125 564.15331891625 1241.76897177125 Z M 590.25331891625 1283.46897177125 C 590.05331891625 1284.76897177125 589.25331891625 1285.96897177125 587.95331891625 1286.56897177125 C 581.85331891625 1289.16897177125 574.65331891625 1292.46897177125 574.55331891625 1292.56897177125 C 572.65331891625 1293.46897177125 570.35331891625 1292.66897177125 569.45331891625 1290.76897177125 C 568.55331891625 1288.86897177125 569.35331891625 1286.56897177125 571.25331891625 1285.66897177125 C 571.35331891625 1285.66897177125 578.65331891625 1282.26897177125 584.95331891625 1279.56897177125 C 586.85331891625 1278.76897177125 589.15331891625 1279.66897177125 589.95331891625 1281.56897177125 C 590.25331891625 1282.16897177125 590.35331891625 1282.86897177125 590.25331891625 1283.46897177125 Z M 603.65331891625 1324.66897177125 C 603.65331891625 1324.76897177125 601.35331891625 1332.46897177125 599.15331891625 1338.96897177125 C 598.45331891625 1340.96897177125 596.35331891625 1342.06897177125 594.35331891625 1341.36897177125 C 593.75331891625 1341.16897177125 593.15331891625 1340.76897177125 592.75331891625 1340.26897177125 C 591.85331891625 1339.26897177125 591.55331891625 1337.86897177125 591.95331891625 1336.46897177125 C 594.05331891625 1330.16897177125 596.25331891625 1322.56897177125 596.35331891625 1322.46897177125 C 596.95331891625 1320.46897177125 599.05331891625 1319.26897177125 601.05331891625 1319.86897177125 C 603.15331891625 1320.56897177125 604.25331891625 1322.66897177125 603.65331891625 1324.66897177125 Z M 593.75331891625 1201.26897177125 C 593.65331891625 1199.16897177125 595.25331891625 1197.36897177125 597.35331891625 1197.26897177125 C 599.45331891625 1197.16897177125 601.25331891625 1198.76897177125 601.35331891625 1200.86897177125 C 601.35331891625 1200.96897177125 601.75331891625 1208.96897177125 601.75331891625 1215.86897177125 C 601.75331891625 1217.96897177125 600.05331891625 1219.66897177125 597.95331891625 1219.66897177125 C 597.25331891625 1219.66897177125 596.65331891625 1219.46897177125 596.05331891625 1219.16897177125 C 594.85331891625 1218.56897177125 594.15331891625 1217.26897177125 594.05331891625 1215.86897177125 C 594.15331891625 1209.26897177125 593.75331891625 1201.36897177125 593.75331891625 1201.26897177125 Z M 622.25331891625 1250.06897177125 C 622.25331891625 1250.16897177125 618.85331891625 1257.46897177125 615.75331891625 1263.56897177125 C 614.75331891625 1265.46897177125 612.45331891625 1266.16897177125 610.65331891625 1265.16897177125 C 610.05331891625 1264.86897177125 609.55331891625 1264.36897177125 609.15331891625 1263.86897177125 C 608.45331891625 1262.76897177125 608.35331891625 1261.26897177125 608.95331891625 1260.06897177125 C 611.95331891625 1254.16897177125 615.35331891625 1246.96897177125 615.35331891625 1246.86897177125 C 616.25331891625 1244.96897177125 618.55331891625 1244.16897177125 620.45331891625 1244.96897177125 C 622.35331891625 1245.86897177125 623.15331891625 1248.16897177125 622.25331891625 1250.06897177125 Z M 627.05331891625 1201.66897177125 C 626.55331891625 1200.46897177125 626.65331891625 1198.96897177125 627.45331891625 1197.86897177125 C 631.45331891625 1192.46897177125 635.85331891625 1185.96897177125 635.95331891625 1185.86897177125 C 637.15331891625 1184.16897177125 639.55331891625 1183.66897177125 641.25331891625 1184.86897177125 C 642.95331891625 1186.06897177125 643.45331891625 1188.46897177125 642.25331891625 1190.16897177125 C 642.25331891625 1190.26897177125 637.65331891625 1196.86897177125 633.65331891625 1202.36897177125 C 632.35331891625 1204.06897177125 630.05331891625 1204.46897177125 628.35331891625 1203.16897177125 C 627.75331891625 1202.76897177125 627.35331891625 1202.26897177125 627.05331891625 1201.66897177125 Z M 645.95331891625 1301.46897177125 C 645.85331891625 1301.56897177125 639.95331891625 1306.96897177125 634.65331891625 1311.26897177125 C 633.05331891625 1312.66897177125 630.65331891625 1312.36897177125 629.25331891625 1310.76897177125 C 628.85331891625 1310.26897177125 628.55331891625 1309.66897177125 628.45331891625 1308.96897177125 C 628.25331891625 1307.66897177125 628.65331891625 1306.26897177125 629.75331891625 1305.36897177125 C 634.85331891625 1301.06897177125 640.75331891625 1295.76897177125 640.85331891625 1295.76897177125 C 642.45331891625 1294.36897177125 644.85331891625 1294.46897177125 646.25331891625 1296.06897177125 C 647.65331891625 1297.66897177125 647.45331891625 1300.06897177125 645.95331891625 1301.46897177125 Z M 646.25331891625 1235.56897177125 C 645.85331891625 1234.96897177125 645.65331891625 1234.36897177125 645.55331891625 1233.76897177125 C 645.45331891625 1232.46897177125 645.95331891625 1231.06897177125 647.15331891625 1230.26897177125 C 652.55331891625 1226.36897177125 658.75331891625 1221.46897177125 658.85331891625 1221.46897177125 C 660.55331891625 1220.16897177125 662.95331891625 1220.46897177125 664.15331891625 1222.16897177125 C 665.45331891625 1223.86897177125 665.15331891625 1226.26897177125 663.45331891625 1227.46897177125 C 663.35331891625 1227.56897177125 657.05331891625 1232.46897177125 651.55331891625 1236.46897177125 C 649.85331891625 1237.66897177125 647.45331891625 1237.26897177125 646.25331891625 1235.56897177125 Z M 674.85331891625 1335.16897177125 C 674.75331891625 1335.16897177125 666.95331891625 1337.26897177125 660.35331891625 1338.76897177125 C 658.25331891625 1339.26897177125 656.25331891625 1337.96897177125 655.75331891625 1335.86897177125 C 655.65331891625 1335.16897177125 655.65331891625 1334.56897177125 655.85331891625 1333.86897177125 C 656.25331891625 1332.56897177125 657.25331891625 1331.56897177125 658.65331891625 1331.26897177125 C 665.15331891625 1329.76897177125 672.85331891625 1327.76897177125 672.85331891625 1327.76897177125 C 674.85331891625 1327.26897177125 676.95331891625 1328.46897177125 677.55331891625 1330.46897177125 C 678.15331891625 1332.56897177125 676.85331891625 1334.66897177125 674.85331891625 1335.16897177125 Z M 680.65331891625 1263.96897177125 C 679.95331891625 1265.96897177125 677.75331891625 1266.96897177125 675.75331891625 1266.26897177125 C 675.65331891625 1266.26897177125 668.05331891625 1263.56897177125 661.75331891625 1260.96897177125 C 659.75331891625 1260.16897177125 658.85331891625 1257.96897177125 659.65331891625 1255.96897177125 C 659.95331891625 1255.36897177125 660.35331891625 1254.76897177125 660.85331891625 1254.36897177125 C 661.85331891625 1253.56897177125 663.35331891625 1253.26897177125 664.65331891625 1253.76897177125 C 670.85331891625 1256.26897177125 678.25331891625 1258.86897177125 678.35331891625 1258.96897177125 C 680.25331891625 1259.76897177125 681.35331891625 1261.96897177125 680.65331891625 1263.96897177125 Z M 673.45331891625 1199.96897177125 C 677.45331891625 1194.56897177125 681.85331891625 1188.06897177125 681.95331891625 1187.96897177125 C 683.15331891625 1186.26897177125 685.55331891625 1185.76897177125 687.25331891625 1186.96897177125 C 688.95331891625 1188.16897177125 689.45331891625 1190.56897177125 688.25331891625 1192.26897177125 C 688.25331891625 1192.36897177125 683.65331891625 1198.96897177125 679.65331891625 1204.46897177125 C 678.35331891625 1206.16897177125 676.05331891625 1206.56897177125 674.35331891625 1205.26897177125 C 673.75331891625 1204.86897177125 673.35331891625 1204.36897177125 673.15331891625 1203.76897177125 C 672.55331891625 1202.56897177125 672.65331891625 1201.06897177125 673.45331891625 1199.96897177125 Z M 706.15331891625 1305.66897177125 C 706.05331891625 1305.66897177125 698.25331891625 1307.46897177125 691.55331891625 1308.76897177125 C 689.45331891625 1309.16897177125 687.45331891625 1307.76897177125 687.05331891625 1305.76897177125 C 686.95331891625 1305.06897177125 686.95331891625 1304.46897177125 687.15331891625 1303.86897177125 C 687.55331891625 1302.56897177125 688.65331891625 1301.66897177125 690.05331891625 1301.36897177125 C 696.55331891625 1300.16897177125 704.35331891625 1298.36897177125 704.35331891625 1298.26897177125 C 706.35331891625 1297.76897177125 708.45331891625 1299.06897177125 708.95331891625 1301.06897177125 C 709.45331891625 1303.16897177125 708.15331891625 1305.16897177125 706.15331891625 1305.66897177125 Z M 714.75331891625 1248.76897177125 C 714.15331891625 1249.06897177125 713.55331891625 1249.26897177125 712.85331891625 1249.26897177125 C 711.55331891625 1249.26897177125 710.25331891625 1248.56897177125 709.55331891625 1247.36897177125 C 706.25331891625 1241.56897177125 702.05331891625 1234.86897177125 702.05331891625 1234.76897177125 C 700.95331891625 1232.96897177125 701.45331891625 1230.66897177125 703.25331891625 1229.46897177125 C 705.05331891625 1228.36897177125 707.35331891625 1228.86897177125 708.45331891625 1230.66897177125 C 708.45331891625 1230.76897177125 712.75331891625 1237.56897177125 716.15331891625 1243.46897177125 C 717.25331891625 1245.36897177125 716.65331891625 1247.66897177125 714.75331891625 1248.76897177125 Z M 735.15331891625 1326.86897177125 C 735.15331891625 1326.96897177125 733.45331891625 1334.86897177125 731.85331891625 1341.46897177125 C 731.35331891625 1343.46897177125 729.25331891625 1344.76897177125 727.25331891625 1344.26897177125 C 726.55331891625 1344.06897177125 726.05331891625 1343.76897177125 725.55331891625 1343.36897177125 C 724.55331891625 1342.46897177125 724.15331891625 1341.06897177125 724.45331891625 1339.66897177125 C 726.05331891625 1333.16897177125 727.65331891625 1325.46897177125 727.65331891625 1325.36897177125 C 728.05331891625 1323.26897177125 730.05331891625 1321.96897177125 732.15331891625 1322.36897177125 C 734.25331891625 1322.76897177125 735.55331891625 1324.76897177125 735.15331891625 1326.86897177125 Z M 745.65331891625 1279.96897177125 C 745.55331891625 1280.06897177125 739.25331891625 1284.96897177125 733.75331891625 1288.96897177125 C 732.05331891625 1290.16897177125 729.65331891625 1289.76897177125 728.45331891625 1288.06897177125 C 728.05331891625 1287.46897177125 727.85331891625 1286.86897177125 727.75331891625 1286.26897177125 C 727.65331891625 1284.96897177125 728.15331891625 1283.56897177125 729.35331891625 1282.76897177125 C 734.75331891625 1278.86897177125 740.95331891625 1273.96897177125 741.05331891625 1273.96897177125 C 742.75331891625 1272.66897177125 745.15331891625 1272.96897177125 746.35331891625 1274.66897177125 C 747.65331891625 1276.26897177125 747.35331891625 1278.66897177125 745.65331891625 1279.96897177125 Z M 784.95331891625 1337.06897177125 L 783.95331891625 1339.66897177125 L 782.55331891625 1341.76897177125 C 779.15331891625 1346.76897177125 773.75331891625 1350.46897177125 766.05331891625 1353.06897177125 C 810.45331891625 1328.16897177125 746.95331891625 1220.66897177125 713.25331891625 1188.66897177125 C 715.75331891625 1190.46897177125 718.15331891625 1192.36897177125 720.55331891625 1194.36897177125 C 749.55331891625 1218.36897177125 767.55331891625 1251.26897177125 779.75331891625 1286.16897177125 C 785.05331891625 1301.36897177125 790.95331891625 1321.06897177125 784.95331891625 1337.06897177125 Z M 789.95331891625 1266.96897177125 C 789.85331891625 1267.66897177125 789.65331891625 1268.56897177125 789.45331891625 1269.56897177125 C 788.45331891625 1273.76897177125 786.55331891625 1279.46897177125 787.65331891625 1282.46897177125 C 785.95331891625 1277.66897177125 784.25331891625 1273.16897177125 782.75331891625 1269.26897177125 C 770.55331891625 1237.06897177125 753.75331891625 1208.86897177125 726.95331891625 1186.76897177125 C 673.75331891625 1142.76897177125 601.25331891625 1136.86897177125 538.85331891625 1164.26897177125 C 502.05331891625 1180.46897177125 473.35331891625 1209.76897177125 454.75331891625 1245.06897177125 C 445.85331891625 1261.86897177125 439.95331891625 1280.16897177125 436.25331891625 1298.76897177125 C 433.65331891625 1311.96897177125 433.75331891625 1326.76897177125 429.05331891625 1339.26897177125 C 428.35331891625 1338.36897177125 427.65331891625 1337.46897177125 427.25331891625 1336.46897177125 C 427.15331891625 1336.06897177125 426.85331891625 1335.76897177125 426.65331891625 1335.46897177125 C 419.25331891625 1320.96897177125 432.85331891625 1308.16897177125 431.45331891625 1292.76897177125 C 430.65331891625 1283.86897177125 426.55331891625 1276.36897177125 428.15331891625 1267.16897177125 C 429.75331891625 1257.96897177125 440.25331891625 1255.86897177125 445.95331891625 1250.56897177125 C 454.15331891625 1242.86897177125 455.45331891625 1232.56897177125 455.35331891625 1221.76897177125 C 455.15331891625 1203.26897177125 481.45331891625 1211.26897177125 487.85331891625 1195.46897177125 C 490.35331891625 1189.26897177125 492.15331891625 1182.66897177125 494.35331891625 1176.26897177125 C 497.55331891625 1166.96897177125 509.25331891625 1168.36897177125 517.15331891625 1168.86897177125 C 528.95331891625 1169.56897177125 535.75331891625 1162.86897177125 541.95331891625 1153.46897177125 C 546.35331891625 1146.86897177125 547.75331891625 1144.36897177125 556.75331891625 1145.66897177125 C 562.15331891625 1146.46897177125 567.65331891625 1148.16897177125 573.15331891625 1147.26897177125 C 588.75331891625 1144.76897177125 599.55331891625 1128.16897177125 614.85331891625 1140.26897177125 C 622.35331891625 1146.16897177125 631.45331891625 1148.76897177125 640.55331891625 1145.76897177125 C 646.85331891625 1143.66897177125 651.45331891625 1139.26897177125 658.45331891625 1138.66897177125 C 668.25331891625 1137.86897177125 674.95331891625 1149.56897177125 681.15331891625 1155.16897177125 C 690.15331891625 1163.26897177125 703.45331891625 1160.16897177125 713.65331891625 1165.36897177125 C 724.75331891625 1170.96897177125 726.85331891625 1185.56897177125 739.35331891625 1190.66897177125 C 748.55331891625 1194.36897177125 759.15331891625 1198.26897177125 761.85331891625 1208.76897177125 C 763.35331891625 1214.56897177125 763.05331891625 1220.46897177125 764.85331891625 1226.16897177125 C 768.75331891625 1238.66897177125 780.95331891625 1242.56897177125 787.65331891625 1252.76897177125 C 790.65331891625 1257.06897177125 790.65331891625 1261.86897177125 789.95331891625 1266.96897177125 Z M 771.35331891625 1227.06897177125 C 765.85331891625 1216.46897177125 769.55331891625 1205.16897177125 761.05331891625 1195.96897177125 C 757.35331891625 1191.96897177125 751.15331891625 1189.36897177125 746.25331891625 1187.36897177125 C 735.85331891625 1183.06897177125 731.25331891625 1177.56897177125 724.65331891625 1168.36897177125 C 719.25331891625 1160.86897177125 712.85331891625 1158.26897177125 703.95331891625 1156.76897177125 C 694.95331891625 1155.26897177125 687.55331891625 1154.16897177125 680.95331891625 1147.16897177125 C 676.15331891625 1142.06897177125 672.35331891625 1137.96897177125 666.05331891625 1134.76897177125 C 657.25331891625 1130.26897177125 648.75331891625 1135.26897177125 640.95331891625 1139.36897177125 C 623.95331891625 1148.26897177125 619.25331891625 1128.66897177125 605.45331891625 1128.96897177125 C 591.95331891625 1129.26897177125 582.55331891625 1141.36897177125 569.25331891625 1141.76897177125 C 560.55331891625 1141.96897177125 548.85331891625 1135.36897177125 541.65331891625 1143.16897177125 C 539.15331891625 1145.86897177125 537.55331891625 1149.66897177125 535.55331891625 1152.76897177125 C 528.85331891625 1162.76897177125 521.35331891625 1163.26897177125 510.55331891625 1162.86897177125 C 502.45331891625 1162.56897177125 493.05331891625 1164.06897177125 489.75331891625 1172.46897177125 C 487.45331891625 1178.26897177125 485.65331891625 1184.36897177125 483.75331891625 1190.36897177125 C 481.45331891625 1197.86897177125 471.05331891625 1201.46897177125 468.75331891625 1192.06897177125 C 467.55331891625 1187.36897177125 468.95331891625 1183.56897177125 470.35331891625 1179.26897177125 C 472.65331891625 1172.26897177125 475.85331891625 1165.66897177125 480.05331891625 1159.66897177125 C 484.25331891625 1153.56897177125 491.05331891625 1148.16897177125 497.25331891625 1144.26897177125 C 505.05331891625 1139.36897177125 513.95331891625 1136.56897177125 522.85331891625 1134.56897177125 C 532.45331891625 1132.36897177125 542.55331891625 1135.06897177125 551.75331891625 1132.86897177125 C 560.85331891625 1130.76897177125 567.85331891625 1124.76897177125 576.65331891625 1121.76897177125 C 589.05331891625 1117.56897177125 604.15331891625 1123.66897177125 616.35331891625 1125.96897177125 C 633.65331891625 1129.06897177125 658.15331891625 1115.16897177125 671.65331891625 1130.66897177125 C 682.15331891625 1142.76897177125 698.65331891625 1139.06897177125 712.75331891625 1143.16897177125 C 721.05331891625 1145.56897177125 726.15331891625 1149.16897177125 728.95331891625 1157.76897177125 C 729.95331891625 1160.96897177125 730.25331891625 1165.16897177125 732.25331891625 1167.96897177125 C 735.65331891625 1172.56897177125 739.15331891625 1174.06897177125 744.75331891625 1175.46897177125 C 756.15331891625 1178.36897177125 764.95331891625 1180.86897177125 771.25331891625 1191.76897177125 C 776.05331891625 1200.16897177125 770.75331891625 1211.36897177125 775.45331891625 1219.86897177125 C 778.35331891625 1225.06897177125 783.95331891625 1228.06897177125 788.15331891625 1231.96897177125 C 793.95331891625 1237.26897177125 794.45331891625 1244.36897177125 793.35331891625 1251.46897177125 C 789.15331891625 1241.26897177125 776.55331891625 1236.96897177125 771.35331891625 1227.06897177125 Z M 794.35331891625 1340.56897177125 C 799.15331891625 1327.76897177125 796.55331891625 1311.16897177125 792.05331891625 1295.86897177125 C 798.15331891625 1303.46897177125 804.95331891625 1310.16897177125 808.05331891625 1319.76897177125 C 811.65331891625 1330.76897177125 803.35331891625 1337.26897177125 794.35331891625 1340.56897177125 Z"/><path id="text" fill="#ffffff" transform="matrix(0.6654166703174894 0 0 0.6654166703174894 212.94493571643713 38.98792043249105)" d="M 201.37767432187 653.84114770919 L 220.57767432187 653.84114770919 C 227.93767432187 653.84114770919 233.56967432187 655.34514770919 237.47367432187 658.35314770919 C 241.37767432187 661.36114770919 243.32967432187 666.51314770919 243.32967432187 673.80914770919 C 243.32967432187 678.54514770919 242.36967432187 682.24114770919 240.44967432187 684.89714770919 C 238.52967432187 687.55314770919 235.74567432187 689.16914770919 232.09767432187 689.74514770919 C 241.05767432187 691.47314770919 245.53767432187 697.87314770919 245.53767432187 708.94514770919 C 245.53767432187 716.43314770919 243.71367432187 722.08114770919 240.06567432187 725.88914770919 C 236.41767432187 729.69714770919 231.00967432187 731.60114770919 223.84167432187 731.60114770919 L 201.37767432187 731.60114770919 L 201.37767432187 653.84114770919 Z M 220.38567432187 685.61714770919 C 224.48167432187 685.61714770919 227.28167432187 684.70514770919 228.78567432187 682.88114770919 C 230.28967432187 681.05714770919 231.04167432187 678.09714770919 231.04167432187 674.00114770919 C 231.04167432187 670.03314770919 230.06567432187 667.32914770919 228.11367432187 665.88914770919 C 226.16167432187 664.44914770919 222.91367432187 663.72914770919 218.36967432187 663.72914770919 L 215.48967432187 663.72914770919 L 215.48967432187 685.61714770919 L 220.38567432187 685.61714770919 Z M 220.96167432187 721.61714770919 C 225.12167432187 721.61714770919 228.00167432187 720.62514770919 229.60167432187 718.64114770919 C 231.20167432187 716.65714770919 232.00167432187 713.39314770919 232.00167432187 708.84914770919 C 232.00167432187 704.17714770919 231.12167432187 700.76914770919 229.36167432187 698.62514770919 C 227.60167432187 696.48114770919 224.64167432187 695.40914770919 220.48167432187 695.40914770919 L 215.48967432187 695.40914770919 L 215.48967432187 721.61714770919 L 220.96167432187 721.61714770919 Z M 267.71367432187 729.58514770919 C 264.51367432187 727.53714770919 262.27367432187 724.62514770919 260.99367432187 720.84914770919 C 259.71367432187 717.07314770919 259.07367432187 712.27314770919 259.07367432187 706.44914770919 L 259.07367432187 653.84114770919 L 272.89767432187 653.84114770919 L 272.89767432187 708.08114770919 C 272.89767432187 712.56114770919 273.42567432187 716.01714770919 274.48167432187 718.44914770919 C 275.53767432187 720.88114770919 277.69767432187 722.09714770919 280.96167432187 722.09714770919 C 284.28967432187 722.09714770919 286.48167432187 720.88114770919 287.53767432187 718.44914770919 C 288.59367432187 716.01714770919 289.12167432187 712.56114770919 289.12167432187 708.08114770919 L 289.12167432187 653.84114770919 L 302.84967432187 653.84114770919 L 302.84967432187 706.44914770919 C 302.84967432187 712.20914770919 302.20967432187 716.99314770919 300.92967432187 720.80114770919 C 299.64967432187 724.60914770919 297.40967432187 727.53714770919 294.20967432187 729.58514770919 C 291.00967432187 731.63314770919 286.59367432187 732.65714770919 280.96167432187 732.65714770919 C 275.32967432187 732.65714770919 270.91367432187 731.63314770919 267.71367432187 729.58514770919 Z M 318.78567432187 653.84114770919 L 337.50567432187 653.84114770919 C 345.69767432187 653.84114770919 351.80967432187 655.39314770919 355.84167432187 658.49714770919 C 359.87367432187 661.60114770919 361.88967432187 666.92914770919 361.88967432187 674.48114770919 C 361.88967432187 679.40914770919 361.16967432187 683.42514770919 359.72967432187 686.52914770919 C 358.28967432187 689.63314770919 355.80967432187 691.88914770919 352.28967432187 693.29714770919 L 363.13767432187 731.60114770919 L 348.92967432187 731.60114770919 L 339.61767432187 695.98514770919 L 332.89767432187 695.98514770919 L 332.89767432187 731.60114770919 L 318.78567432187 731.60114770919 L 318.78567432187 653.84114770919 Z M 337.40967432187 687.15314770919 C 341.44167432187 687.15314770919 344.30567432187 686.22514770919 346.00167432187 684.36914770919 C 347.69767432187 682.51314770919 348.54567432187 679.47314770919 348.54567432187 675.24914770919 C 348.54567432187 671.15314770919 347.79367432187 668.17714770919 346.28967432187 666.32114770919 C 344.78567432187 664.46514770919 342.08167432187 663.53714770919 338.17767432187 663.53714770919 L 332.89767432187 663.53714770919 L 332.89767432187 687.15314770919 L 337.40967432187 687.15314770919 Z M 380.65767432187 725.79314770919 C 377.42567432187 721.21714770919 375.80967432187 714.60914770919 375.80967432187 705.96914770919 L 375.80967432187 679.85714770919 C 375.80967432187 670.96114770919 377.47367432187 664.25714770919 380.80167432187 659.74514770919 C 384.12967432187 655.23314770919 389.85767432187 652.97714770919 397.98567432187 652.97714770919 C 405.66567432187 652.97714770919 411.16967432187 654.88114770919 414.49767432187 658.68914770919 C 417.82567432187 662.49714770919 419.48967432187 668.14514770919 419.48967432187 675.63314770919 L 419.48967432187 679.66514770919 L 405.95367432187 679.66514770919 L 405.95367432187 675.24914770919 C 405.95367432187 672.43314770919 405.77767432187 670.19314770919 405.42567432187 668.52914770919 C 405.07367432187 666.86514770919 404.33767432187 665.58514770919 403.21767432187 664.68914770919 C 402.09767432187 663.79314770919 400.41767432187 663.34514770919 398.17767432187 663.34514770919 C 395.80967432187 663.34514770919 394.04967432187 663.92114770919 392.89767432187 665.07314770919 C 391.74567432187 666.22514770919 390.99367432187 667.69714770919 390.64167432187 669.48914770919 C 390.28967432187 671.28114770919 390.11367432187 673.61714770919 390.11367432187 676.49714770919 L 390.11367432187 709.04114770919 C 390.11367432187 713.45714770919 390.70567432187 716.75314770919 391.88967432187 718.92914770919 C 393.07367432187 721.10514770919 395.29767432187 722.19314770919 398.56167432187 722.19314770919 C 401.76167432187 722.19314770919 403.98567432187 721.04114770919 405.23367432187 718.73714770919 C 406.48167432187 716.43314770919 407.10567432187 712.97714770919 407.10567432187 708.36914770919 L 407.10567432187 701.07314770919 L 398.75367432187 701.07314770919 L 398.75367432187 692.14514770919 L 419.87367432187 692.14514770919 L 419.87367432187 731.60114770919 L 410.65767432187 731.60114770919 L 409.69767432187 724.01714770919 C 407.26567432187 729.77714770919 402.88167432187 732.65714770919 396.54567432187 732.65714770919 C 389.18567432187 732.65714770919 383.88967432187 730.36914770919 380.65767432187 725.79314770919 Z M 435.52167432187 653.84114770919 L 468.16167432187 653.84114770919 L 468.16167432187 663.82514770919 L 449.63367432187 663.82514770919 L 449.63367432187 686.19314770919 L 464.22567432187 686.19314770919 L 464.22567432187 696.08114770919 L 449.63367432187 696.08114770919 L 449.63367432187 721.90514770919 L 468.35367432187 721.90514770919 L 468.35367432187 731.60114770919 L 435.52167432187 731.60114770919 L 435.52167432187 653.84114770919 Z M 481.40967432187 653.84114770919 L 500.12967432187 653.84114770919 C 508.32167432187 653.84114770919 514.43367432187 655.39314770919 518.46567432187 658.49714770919 C 522.49767432187 661.60114770919 524.51367432187 666.92914770919 524.51367432187 674.48114770919 C 524.51367432187 679.40914770919 523.79367432187 683.42514770919 522.35367432187 686.52914770919 C 520.91367432187 689.63314770919 518.43367432187 691.88914770919 514.91367432187 693.29714770919 L 525.76167432187 731.60114770919 L 511.55367432187 731.60114770919 L 502.24167432187 695.98514770919 L 495.52167432187 695.98514770919 L 495.52167432187 731.60114770919 L 481.40967432187 731.60114770919 L 481.40967432187 653.84114770919 Z M 500.03367432187 687.15314770919 C 504.06567432187 687.15314770919 506.92967432187 686.22514770919 508.62567432187 684.36914770919 C 510.32167432187 682.51314770919 511.16967432187 679.47314770919 511.16967432187 675.24914770919 C 511.16967432187 671.15314770919 510.41767432187 668.17714770919 508.91367432187 666.32114770919 C 507.40967432187 664.46514770919 504.70567432187 663.53714770919 500.80167432187 663.53714770919 L 495.52167432187 663.53714770919 L 495.52167432187 687.15314770919 L 500.03367432187 687.15314770919 Z M 571.98567432187 725.88914770919 C 568.62567432187 721.37714770919 566.94567432187 714.99314770919 566.94567432187 706.73714770919 L 566.94567432187 678.99314770919 C 566.94567432187 670.48114770919 568.60967432187 664.01714770919 571.93767432187 659.60114770919 C 575.26567432187 655.18514770919 580.99367432187 652.97714770919 589.12167432187 652.97714770919 C 596.73767432187 652.97714770919 602.14567432187 654.89714770919 605.34567432187 658.73714770919 C 608.54567432187 662.57714770919 610.14567432187 668.11314770919 610.14567432187 675.34514770919 L 610.14567432187 681.87314770919 L 596.51367432187 681.87314770919 L 596.51367432187 675.15314770919 C 596.51367432187 672.40114770919 596.38567432187 670.24114770919 596.12967432187 668.67314770919 C 595.87367432187 667.10514770919 595.21767432187 665.82514770919 594.16167432187 664.83314770919 C 593.10567432187 663.84114770919 591.45767432187 663.34514770919 589.21767432187 663.34514770919 C 586.91367432187 663.34514770919 585.18567432187 663.87314770919 584.03367432187 664.92914770919 C 582.88167432187 665.98514770919 582.12967432187 667.39314770919 581.77767432187 669.15314770919 C 581.42567432187 670.91314770919 581.24967432187 673.20114770919 581.24967432187 676.01714770919 L 581.24967432187 709.71314770919 C 581.24967432187 714.12914770919 581.82567432187 717.31314770919 582.97767432187 719.26514770919 C 584.12967432187 721.21714770919 586.20967432187 722.19314770919 589.21767432187 722.19314770919 C 591.39367432187 722.19314770919 593.00967432187 721.68114770919 594.06567432187 720.65714770919 C 595.12167432187 719.63314770919 595.79367432187 718.27314770919 596.08167432187 716.57714770919 C 596.36967432187 714.88114770919 596.51367432187 712.62514770919 596.51367432187 709.80914770919 L 596.51367432187 702.80114770919 L 610.14567432187 702.80114770919 L 610.14567432187 709.04114770919 C 610.14567432187 716.52914770919 608.57767432187 722.33714770919 605.44167432187 726.46514770919 C 602.30567432187 730.59314770919 596.86567432187 732.65714770919 589.12167432187 732.65714770919 C 581.05767432187 732.65714770919 575.34567432187 730.40114770919 571.98567432187 725.88914770919 Z M 628.76967432187 726.17714770919 C 625.31367432187 721.85714770919 623.58567432187 715.53714770919 623.58567432187 707.21714770919 L 623.58567432187 678.03314770919 C 623.58567432187 669.77714770919 625.31367432187 663.53714770919 628.76967432187 659.31314770919 C 632.22567432187 655.08914770919 637.98567432187 652.97714770919 646.04967432187 652.97714770919 C 654.04967432187 652.97714770919 659.77767432187 655.08914770919 663.23367432187 659.31314770919 C 666.68967432187 663.53714770919 668.41767432187 669.77714770919 668.41767432187 678.03314770919 L 668.41767432187 707.21714770919 C 668.41767432187 715.47314770919 666.67367432187 721.77714770919 663.18567432187 726.12914770919 C 659.69767432187 730.48114770919 653.98567432187 732.65714770919 646.04967432187 732.65714770919 C 637.98567432187 732.65714770919 632.22567432187 730.49714770919 628.76967432187 726.17714770919 Z M 652.38567432187 719.21714770919 C 653.47367432187 717.23314770919 654.01767432187 714.35314770919 654.01767432187 710.57714770919 L 654.01767432187 674.76914770919 C 654.01767432187 670.99314770919 653.48967432187 668.14514770919 652.43367432187 666.22514770919 C 651.37767432187 664.30514770919 649.24967432187 663.34514770919 646.04967432187 663.34514770919 C 642.84967432187 663.34514770919 640.70567432187 664.32114770919 639.61767432187 666.27314770919 C 638.52967432187 668.22514770919 637.98567432187 671.05714770919 637.98567432187 674.76914770919 L 637.98567432187 710.57714770919 C 637.98567432187 714.35314770919 638.52967432187 717.23314770919 639.61767432187 719.21714770919 C 640.70567432187 721.20114770919 642.84967432187 722.19314770919 646.04967432187 722.19314770919 C 649.18567432187 722.19314770919 651.29767432187 721.20114770919 652.38567432187 719.21714770919 Z M 684.83367432187 653.84114770919 L 699.52167432187 653.84114770919 L 710.56167432187 707.69714770919 L 721.98567432187 653.84114770919 L 736.28967432187 653.84114770919 L 737.72967432187 731.60114770919 L 727.16967432187 731.60114770919 L 726.01767432187 677.55314770919 L 714.97767432187 731.60114770919 L 706.43367432187 731.60114770919 L 695.20167432187 677.36114770919 L 694.14567432187 731.60114770919 L 683.48967432187 731.60114770919 L 684.83367432187 653.84114770919 Z M 754.04967432187 653.84114770919 L 776.89767432187 653.84114770919 C 790.14567432187 653.84114770919 796.76967432187 661.20114770919 796.76967432187 675.92114770919 C 796.76967432187 690.00114770919 789.82567432187 697.04114770919 775.93767432187 697.04114770919 L 768.16167432187 697.04114770919 L 768.16167432187 731.60114770919 L 754.04967432187 731.60114770919 L 754.04967432187 653.84114770919 Z M 773.63367432187 687.05714770919 C 777.47367432187 687.05714770919 780.06567432187 686.24114770919 781.40967432187 684.60914770919 C 782.75367432187 682.97714770919 783.42567432187 680.04914770919 783.42567432187 675.82514770919 C 783.42567432187 672.75314770919 783.20167432187 670.40114770919 782.75367432187 668.76914770919 C 782.30567432187 667.13714770919 781.39367432187 665.90514770919 780.01767432187 665.07314770919 C 778.64167432187 664.24114770919 776.51367432187 663.82514770919 773.63367432187 663.82514770919 L 768.16167432187 663.82514770919 L 768.16167432187 687.05714770919 L 773.63367432187 687.05714770919 Z M 817.02567432187 653.84114770919 L 832.19367432187 653.84114770919 L 847.74567432187 731.60114770919 L 834.59367432187 731.60114770919 L 831.52167432187 713.64914770919 L 817.98567432187 713.64914770919 L 814.81767432187 731.60114770919 L 801.47367432187 731.60114770919 L 817.02567432187 653.84114770919 Z M 829.98567432187 704.62514770919 L 824.70567432187 671.98514770919 L 819.42567432187 704.62514770919 L 829.98567432187 704.62514770919 Z M 860.32167432187 653.84114770919 L 870.20967432187 653.84114770919 L 889.12167432187 698.19314770919 L 889.12167432187 653.84114770919 L 900.83367432187 653.84114770919 L 900.83367432187 731.60114770919 L 891.42567432187 731.60114770919 L 872.41767432187 685.13714770919 L 872.41767432187 731.60114770919 L 860.32167432187 731.60114770919 L 860.32167432187 653.84114770919 Z M 928.28967432187 701.93714770919 L 912.54567432187 653.84114770919 L 925.79367432187 653.84114770919 L 935.39367432187 684.65714770919 L 944.41767432187 653.84114770919 L 957.37767432187 653.84114770919 L 941.82567432187 701.93714770919 L 941.82567432187 731.60114770919 L 928.28967432187 731.60114770919 L 928.28967432187 701.93714770919 Z"/></svg>